<?xml version="1.0" encoding="utf-8"?>
<svg viewBox="0 0 24 24" fill="#000000" xmlns="http://www.w3.org/2000/svg">
  <path d="M 20.726 2 L 19.926 2 C 19.699 1.985 19.511 2.173 19.526 2.4 L 19.526 4 C 19.526 5.756 18.11 7.185 16.354 7.2 L 7.646 7.2 C 5.89 7.185 4.474 5.756 4.474 4 L 4.474 2.4 C 4.489 2.173 4.301 1.985 4.074 2 L 3.274 2 C 1.956 2.011 0.894 3.082 0.894 4.4 L 0.894 21.6 C 0.894 22.918 1.956 23.989 3.274 24 L 20.726 24 C 22.044 23.989 23.106 22.918 23.106 21.6 L 23.106 4.4 C 23.106 3.082 22.044 2.011 20.726 2 Z M 9.23 18.4 C 9.23 18.842 8.872 19.2 8.43 19.2 L 7.63 19.2 C 7.188 19.2 6.83 18.842 6.83 18.4 L 6.83 14.4 C 6.83 13.958 7.188 13.6 7.63 13.6 L 8.43 13.6 C 8.872 13.6 9.23 13.958 9.23 14.4 L 9.23 18.4 Z M 13.206 18.4 C 13.206 18.842 12.848 19.2 12.406 19.2 L 11.606 19.2 C 11.164 19.2 10.806 18.842 10.806 18.4 L 10.806 10.8 C 10.806 10.358 11.164 10 11.606 10 L 12.406 10 C 12.848 10 13.206 10.358 13.206 10.8 L 13.206 18.4 Z M 17.17 18.4 C 17.17 18.842 16.812 19.2 16.37 19.2 L 15.57 19.2 C 15.128 19.2 14.77 18.842 14.77 18.4 L 14.77 12.4 C 14.77 11.958 15.128 11.6 15.57 11.6 L 16.37 11.6 C 16.812 11.6 17.17 11.958 17.17 12.4 L 17.17 18.4 Z" fill-rule="evenodd" style="fill: rgb(72, 53, 91);" transform="matrix(1, 0, 0, 1, -6.661338147750939e-16, 2.220446049250313e-16)"/>
  <path d="M 7.646 4.8 L 16.366 4.8 C 16.808 4.8 17.166 4.442 17.166 4 L 17.166 2.4 C 17.166 1.082 16.104 0.011 14.786 0 L 9.23 0 C 7.912 0.011 6.85 1.082 6.85 2.4 L 6.85 4 C 6.85 4.44 7.206 4.798 7.646 4.8 Z" fill-rule="evenodd" style="fill: rgb(72, 53, 91);" transform="matrix(1, 0, 0, 1, -6.661338147750939e-16, 2.220446049250313e-16)"/>
</svg>